<svg width="38" height="25" viewBox="0 0 38 25" fill="none" xmlns="http://www.w3.org/2000/svg">
<path d="M2.40542 23.7948C4.23812 22.0849 5.69594 20.5707 6.7789 19.2522C7.86186 17.9131 8.40334 16.8006 8.40334 15.9147C8.40334 15.3791 8.17425 14.9464 7.71608 14.6168C7.2579 14.2872 6.6956 13.9885 6.02916 13.7206C5.38355 13.4734 4.7067 13.1953 3.99862 12.8863C3.29053 12.5773 2.6345 12.1755 2.03055 11.6811C1.44742 11.166 0.958002 10.5274 0.562305 9.76514C0.187435 9.00288 0 8.03461 0 6.86032C0 6.15987 0.13537 5.40791 0.406109 4.60445C0.697675 3.80099 1.12461 3.05933 1.68692 2.37948C2.27005 1.69963 2.98855 1.13309 3.84242 0.679852C4.69629 0.226617 5.68553 0 6.81014 0C8.12219 0 9.25721 0.226617 10.2152 0.679852C11.194 1.11248 11.9958 1.69963 12.6206 2.44129C13.2454 3.18294 13.714 4.04821 14.0264 5.03708C14.3388 6.02596 14.495 7.07664 14.495 8.18912C14.495 10.4141 14.1514 12.433 13.4641 14.246C12.7977 16.0383 11.923 17.6349 10.84 19.0358C9.75704 20.4162 8.54912 21.611 7.21625 22.6205C5.90421 23.6094 4.60257 24.4026 3.31135 25L2.40542 23.7948Z" fill="white"/>
<path d="M25.9104 23.7948C27.7431 22.0849 29.201 20.5707 30.2839 19.2522C31.3669 17.9131 31.9084 16.8006 31.9084 15.9147C31.9084 15.3791 31.6793 14.9464 31.2211 14.6168C30.7629 14.2872 30.2006 13.9885 29.5342 13.7206C28.8886 13.4734 28.2117 13.1953 27.5036 12.8863C26.7955 12.5773 26.1395 12.1755 25.5356 11.6811C24.9524 11.166 24.463 10.5274 24.0673 9.76514C23.6925 9.00288 23.505 8.03461 23.505 6.86032C23.505 6.15987 23.6404 5.40791 23.9111 4.60445C24.2027 3.80099 24.6296 3.05933 25.1919 2.37948C25.7751 1.69963 26.4936 1.13309 27.3474 0.679852C28.2013 0.226617 29.1906 0 30.3152 0C31.6272 0 32.7622 0.226617 33.7202 0.679852C34.6991 1.11248 35.5009 1.69963 36.1256 2.44129C36.7504 3.18294 37.219 4.04821 37.5314 5.03708C37.8438 6.02596 38 7.07664 38 8.18912C38 10.4141 37.6564 12.433 36.9691 14.246C36.3027 16.0383 35.428 17.6349 34.345 19.0358C33.2621 20.4162 32.0541 21.611 30.7213 22.6205C29.4092 23.6094 28.1076 24.4026 26.8164 25L25.9104 23.7948Z" fill="white"/>
</svg>
