<svg width="33" height="33" viewBox="0 0 33 33" fill="none" xmlns="http://www.w3.org/2000/svg">
<path d="M9.11272 30.2369C11.4664 31.5146 14.1163 32.188 16.8132 32.1889H16.8199C25.7009 32.1889 32.9303 24.9944 32.9339 16.1521C32.9356 11.867 31.261 7.83779 28.2187 4.8066C25.1763 1.77531 21.1303 0.10514 16.8196 0.103394C7.9378 0.103394 0.708957 7.29716 0.705447 16.1393C0.704208 18.9658 1.44626 21.7247 2.85646 24.1568L0.570312 32.467L9.11272 30.2369ZM16.8251 2.81197C20.4025 2.81321 23.7653 4.20156 26.2941 6.72099C28.8227 9.24042 30.2145 12.5894 30.2132 16.151C30.2102 23.5008 24.2019 29.4804 16.8199 29.4804H16.8144C14.4111 29.4795 12.0539 28.837 9.99755 27.6224L9.50852 27.3335L4.43936 28.657L5.79237 23.7382L5.47388 23.2338C4.13317 21.1116 3.42508 18.6589 3.42611 16.1401C3.4291 8.79113 9.4374 2.81197 16.8251 2.81197Z" fill="white"/>
<path d="M17.1542 22.7734C18.1148 23.1863 18.8648 23.4328 19.4495 23.6174C20.414 23.9224 21.2918 23.8794 21.9856 23.7762C22.7591 23.6613 24.3677 22.807 24.7033 21.871C25.0387 20.9348 25.0387 20.1325 24.9381 19.9654C24.8374 19.7983 24.569 19.698 24.1664 19.4973C23.7638 19.2968 21.7843 18.3275 21.4152 18.1937C21.0461 18.06 20.7777 17.9932 20.5093 18.3942C20.2409 18.7953 19.4693 19.698 19.2343 19.9654C18.9995 20.2328 18.7646 20.2664 18.3621 20.0657C17.9595 19.8652 16.6621 19.4421 15.1242 18.0768C13.9272 17.0143 13.1192 15.7021 12.8843 15.301C12.6495 14.8999 12.8593 14.683 13.0609 14.4832C13.2421 14.3036 13.4636 14.0151 13.6648 13.7812C13.8661 13.5473 13.9332 13.38 14.0674 13.1128C14.2016 12.8452 14.1345 12.6113 14.0339 12.4107C13.9332 12.2102 13.128 10.2377 12.7925 9.43533C12.4656 8.65408 12.1337 8.75991 11.8866 8.74747C11.652 8.73587 11.3833 8.7334 11.1149 8.7334C10.8465 8.7334 10.4102 8.83367 10.0412 9.23478C9.67218 9.63599 8.63208 10.6055 8.63208 12.5777C8.63208 14.5501 10.0748 16.4555 10.2761 16.7229C10.4772 16.9902 13.1151 21.0376 17.1542 22.7734Z" fill="white"/>
</svg>
